# xmcd CD database file
#
# Track frame offsets:
#	150
#	15420
#	29682
#	43137
#	60452
#	79595
#	91605
#	108702
#	123715
#	135255
#
# Disc length: 2010 seconds
#
# Revision: 3
# Processed by: cddbd v1.5.2PL0 Copyright (c) Steve Scherf et al.
# Submitted via: CDex 1.70beta2
#
DISCID=7907d80a
DTITLE=Dwight Yoakam, 1956- - Come On Christmas
DYEAR=1997
DGENRE=Christmas
TTITLE0=Dwight Yoakam - Come On Christmas
TTITLE1=Marvin Brodie, Johnny Marks - Run Run Rudolph
TTITLE2=Ray Evans, Jay Livingston - Silver Bells -feat: Beth Andersen
TTITLE3=Kim Gannon, Walter Kent, Buck Ram - I'll Be Home For Christmas
TTITLE4=Franz Gruber, Joseph Mohr - Silent Night
TTITLE5=Jerry Leiber, Mike Stoller - Santa Clause Is Back In town
TTITLE6=Mel Tormé, Robert Wells - The Christmas Song
TTITLE7=William James Kirkpatrick, Traditional - Away In A Manger
TTITLE8=Gene Autry, Oakley Haldeman - Here Comes Santa Clause
TTITLE9=Dwight Yoakam - Santa Can't Stay
EXTD=YEAR: 1997
EXTT0=
EXTT1=
EXTT2=
EXTT3=
EXTT4=
EXTT5=
EXTT6=
EXTT7=
EXTT8=
EXTT9=
PLAYORDER=
